<?xml version="1.0" encoding="UTF-8"?> <svg xmlns="http://www.w3.org/2000/svg" width="31" height="31" viewBox="0 0 31 31" fill="none"><rect x="0.692249" y="0.890857" width="29.3951" height="29.3951" rx="3.6576" fill="url(#paint0_linear_2001_79)" stroke="url(#paint1_linear_2001_79)" stroke-width="0.29856"></rect><path opacity="0.9" d="M12.6902 17.7431L10.3605 15.4133C9.94831 15.0011 9.27999 15.0011 8.86779 15.4133L8.75465 15.5265C8.34244 15.9387 8.34244 16.607 8.75465 17.0192L12.1927 20.4572C12.6049 20.8694 13.2732 20.8694 13.6854 20.4572L22.1899 11.9527C22.6021 11.5405 22.6021 10.8722 22.1899 10.46L22.0767 10.3469C21.6645 9.93467 20.9962 9.93467 20.584 10.3469L13.1878 17.7431C13.0504 17.8805 12.8276 17.8805 12.6902 17.7431Z" fill="white" stroke="white" stroke-width="0.703676"></path><defs><linearGradient id="paint0_linear_2001_79" x1="15.3898" y1="0.741577" x2="15.3898" y2="30.4353" gradientUnits="userSpaceOnUse"><stop stop-color="#1A1B1D"></stop><stop offset="1" stop-color="#0C0D0F"></stop></linearGradient><linearGradient id="paint1_linear_2001_79" x1="15.3898" y1="0.741577" x2="15.3898" y2="30.4353" gradientUnits="userSpaceOnUse"><stop stop-color="white" stop-opacity="0.33"></stop><stop offset="1" stop-color="white" stop-opacity="0"></stop></linearGradient></defs></svg> 