<svg width="250" height="252" viewBox="0 0 250 252" fill="none" xmlns="http://www.w3.org/2000/svg">
<path d="M249.209 177.428C249.209 218.51 215.443 251.813 173.791 251.813C132.139 251.813 98.373 218.51 98.373 177.428C102.898 187.417 119.599 186.632 119.599 164.843C139.886 169.351 172.194 142.302 145.897 108.297C154.525 104.907 163.937 103.043 173.791 103.043C215.443 103.043 249.209 136.346 249.209 177.428Z" fill="black"/>
<g filter="url(#filter0_bii_32_1641)">
<circle cx="111.398" cy="111.398" r="111.398" fill="url(#paint0_linear_32_1641)" fill-opacity="0.9"/>
</g>
<g filter="url(#filter1_i_32_1641)">
<path fill-rule="evenodd" clip-rule="evenodd" d="M107.606 46.4951C112.382 46.4951 116.254 50.367 116.254 55.1433V62.5957H135.922C140.698 62.5957 144.57 66.4677 144.57 71.2439C144.57 76.0202 140.698 79.8921 135.922 79.8921H100.732C94.7636 79.8921 89.9253 84.7305 89.9253 90.6988C89.9253 96.6672 94.7636 101.506 100.732 101.506H120.302C136.723 101.506 150.034 114.817 150.034 131.238C150.034 146.6 137.581 159.054 122.219 159.054H116.254V167.848C116.254 172.624 112.382 176.496 107.606 176.496C102.83 176.496 98.9576 172.624 98.9576 167.848V159.054H86.7415C81.9653 159.054 78.0934 155.182 78.0934 150.405C78.0934 145.629 81.9653 141.757 86.7415 141.757H122.219C128.028 141.757 132.738 137.048 132.738 131.238C132.738 124.37 127.17 118.802 120.302 118.802H100.732C85.2111 118.802 72.6289 106.22 72.6289 90.6988C72.6289 75.7739 84.2634 63.5663 98.9576 62.6508V55.1433C98.9576 50.367 102.83 46.4951 107.606 46.4951Z" fill="url(#paint1_linear_32_1641)"/>
</g>
<defs>
<filter id="filter0_bii_32_1641" x="-49.0159" y="-49.0159" width="320.827" height="320.827" filterUnits="userSpaceOnUse" color-interpolation-filters="sRGB">
<feFlood flood-opacity="0" result="BackgroundImageFix"/>
<feGaussianBlur in="BackgroundImageFix" stdDeviation="24.508"/>
<feComposite in2="SourceAlpha" operator="in" result="effect1_backgroundBlur_32_1641"/>
<feBlend mode="normal" in="SourceGraphic" in2="effect1_backgroundBlur_32_1641" result="shape"/>
<feColorMatrix in="SourceAlpha" type="matrix" values="0 0 0 0 0 0 0 0 0 0 0 0 0 0 0 0 0 0 127 0" result="hardAlpha"/>
<feOffset dx="1.17782" dy="1.17782"/>
<feGaussianBlur stdDeviation="1"/>
<feComposite in2="hardAlpha" operator="arithmetic" k2="-1" k3="1"/>
<feColorMatrix type="matrix" values="0 0 0 0 0.928409 0 0 0 0 0.978523 0 0 0 0 1 0 0 0 0.26 0"/>
<feBlend mode="normal" in2="shape" result="effect2_innerShadow_32_1641"/>
<feColorMatrix in="SourceAlpha" type="matrix" values="0 0 0 0 0 0 0 0 0 0 0 0 0 0 0 0 0 0 127 0" result="hardAlpha"/>
<feOffset dx="-1.18" dy="-1.18"/>
<feGaussianBlur stdDeviation="1"/>
<feComposite in2="hardAlpha" operator="arithmetic" k2="-1" k3="1"/>
<feColorMatrix type="matrix" values="0 0 0 0 0 0 0 0 0 0 0 0 0 0 0 0 0 0 0.3 0"/>
<feBlend mode="normal" in2="effect2_innerShadow_32_1641" result="effect3_innerShadow_32_1641"/>
</filter>
<filter id="filter1_i_32_1641" x="72.6289" y="46.4951" width="78.2335" height="130.828" filterUnits="userSpaceOnUse" color-interpolation-filters="sRGB">
<feFlood flood-opacity="0" result="BackgroundImageFix"/>
<feBlend mode="normal" in="SourceGraphic" in2="BackgroundImageFix" result="shape"/>
<feColorMatrix in="SourceAlpha" type="matrix" values="0 0 0 0 0 0 0 0 0 0 0 0 0 0 0 0 0 0 127 0" result="hardAlpha"/>
<feOffset dx="0.827273" dy="0.827273"/>
<feGaussianBlur stdDeviation="0.827273"/>
<feComposite in2="hardAlpha" operator="arithmetic" k2="-1" k3="1"/>
<feColorMatrix type="matrix" values="0 0 0 0 1 0 0 0 0 1 0 0 0 0 1 0 0 0 0.12 0"/>
<feBlend mode="normal" in2="shape" result="effect1_innerShadow_32_1641"/>
</filter>
<linearGradient id="paint0_linear_32_1641" x1="202.833" y1="197.24" x2="24.3" y2="8.74832" gradientUnits="userSpaceOnUse">
<stop/>
<stop offset="1"/>
</linearGradient>
<linearGradient id="paint1_linear_32_1641" x1="155.776" y1="183.976" x2="42.667" y2="121.488" gradientUnits="userSpaceOnUse">
<stop stop-color="#1E1D1D"/>
<stop offset="1" stop-color="#4A4A4A"/>
</linearGradient>
</defs>
</svg>
